<?xml version="1.0" encoding="UTF-8"?>
<svg width="1242" height="2436" viewBox="0 0 1242 2436" fill="none" xmlns="http://www.w3.org/2000/svg">
  <!-- Background with gradient -->
  <defs>
    <linearGradient id="bgGradient" x1="0" y1="0" x2="1" y2="1">
      <stop offset="0%" stop-color="#4A90E2"/>
      <stop offset="100%" stop-color="#357ABD"/>
    </linearGradient>
  </defs>
  <rect width="1242" height="2436" fill="url(#bgGradient)"/>
  
  <!-- Logo Container -->
  <g transform="translate(621, 1118)">
    <!-- Car silhouette -->
    <path d="M-256 0
             C-256 -64 -224 -96 -160 -96
             H160
             C224 -96 256 -64 256 0
             V64
             C256 128 224 160 160 160
             H-160
             C-224 160 -256 128 -256 64
             V0Z" 
          fill="white"/>
    
    <!-- Gas nozzle -->
    <path d="M-64 -96
             V-160
             C-64 -192 -48 -208 -16 -208
             H16
             C48 -208 64 -192 64 -160
             V-96"
          stroke="white"
          stroke-width="48"
          stroke-linecap="round"/>
    
    <!-- Gas hose -->
    <path d="M0 -208
             V-288"
          stroke="white"
          stroke-width="48"
          stroke-linecap="round"/>
    
    <!-- Nozzle top -->
    <path d="M-80 -288
             H80"
          stroke="white"
          stroke-width="48"
          stroke-linecap="round"/>
    
    <!-- Wheels -->
    <circle cx="-128" cy="32" r="32" fill="#4A90E2"/>
    <circle cx="128" cy="32" r="32" fill="#4A90E2"/>
    
    <!-- App Name -->
    <text x="0" y="384" font-family="Arial" font-size="64" font-weight="bold" text-anchor="middle" fill="white">
      GasTracker
    </text>
    
    <!-- Decorative elements -->
    <circle cx="0" cy="32" r="480" stroke="white" stroke-width="1" stroke-opacity="0.1"/>
    <circle cx="0" cy="32" r="448" stroke="white" stroke-width="1" stroke-opacity="0.1"/>
  </g>
</svg> 